<?xml version="1.0" standalone="no"?>
<!DOCTYPE svg PUBLIC "-//W3C//DTD SVG 20010904//EN"
 "http://www.w3.org/TR/2001/REC-SVG-20010904/DTD/svg10.dtd">
<svg version="1.0" xmlns="http://www.w3.org/2000/svg"
 width="1754.000000pt" height="556.000000pt" viewBox="0 0 1754.000000 556.000000"
 preserveAspectRatio="xMidYMid meet">

<g transform="translate(0.000000,556.000000) scale(0.100000,-0.100000)"
fill="#000000" stroke="none">
<path d="M10 5533 c0 -10 561 -792 1246 -1738 685 -946 1581 -2185 1992 -2752
l747 -1033 4765 0 4765 0 261 358 c143 196 1045 1431 2002 2744 958 1312 1742
2393 1742 2402 0 56 -60 -19 -530 -662 -272 -372 -757 -1037 -1079 -1477 -321
-440 -992 -1358 -1489 -2040 -498 -682 -914 -1250 -925 -1262 l-20 -23 -4727
0 -4727 0 -20 22 c-14 16 -3192 4405 -3922 5416 -44 61 -81 82 -81 45z"/>
</g>
</svg>
