<?xml version="1.0" standalone="no"?>
<!DOCTYPE svg PUBLIC "-//W3C//DTD SVG 20010904//EN"
 "http://www.w3.org/TR/2001/REC-SVG-20010904/DTD/svg10.dtd">
<svg version="1.0" xmlns="http://www.w3.org/2000/svg"
 width="225.000000pt" height="31.000000pt" viewBox="0 0 225.000000 31.000000"
 preserveAspectRatio="xMidYMid meet">

<g transform="translate(0.000000,31.000000) scale(0.100000,-0.100000)"
fill="#000000" stroke="none">
<path d="M440 272 l-65 -37 -3 -77 -3 -77 61 -35 c34 -20 69 -36 78 -36 9 0
42 15 72 33 l55 33 3 80 3 79 -65 38 c-36 20 -66 37 -68 37 -2 0 -32 -17 -68
-38z m131 -51 c45 -46 32 -123 -26 -149 -40 -18 -62 -15 -97 17 -67 59 -24
158 70 160 13 1 36 -12 53 -28z"/>
<path d="M2 158 c3 -129 4 -133 26 -136 22 -3 22 -2 22 104 0 60 4 104 8 99 5
-6 24 -45 42 -87 32 -74 35 -78 65 -78 30 0 33 4 65 81 19 44 38 83 42 85 5 3
8 -42 8 -100 l0 -106 25 0 25 0 0 135 0 135 -41 0 -40 0 -41 -87 -41 -88 -40
88 -41 87 -43 0 -44 0 3 -132z"/>
<path d="M741 277 c-13 -6 -33 -24 -44 -39 -26 -35 -27 -126 -3 -163 56 -85
266 -65 266 24 0 19 -46 12 -65 -9 -14 -15 -31 -20 -70 -20 -68 0 -86 15 -92
76 -7 72 17 99 87 99 42 0 55 -4 70 -22 19 -23 70 -32 70 -12 0 22 -22 49 -50
64 -35 18 -136 20 -169 2z"/>
<path d="M1000 155 l0 -135 25 0 25 0 0 110 0 110 75 0 75 0 0 -111 0 -110 28
3 27 3 3 133 3 132 -131 0 -130 0 0 -135z"/>
<path d="M1310 155 l0 -136 28 3 c24 3 27 7 30 46 l3 42 69 0 c58 0 73 4 97
24 36 31 39 95 5 128 -20 20 -34 23 -127 26 l-105 4 0 -137z m190 70 c7 -8 10
-25 6 -40 -6 -23 -10 -25 -71 -25 l-65 0 0 40 0 40 59 0 c40 0 63 -5 71 -15z"/>
<path d="M1614 223 l-37 -66 29 -54 c43 -80 50 -84 130 -81 l69 3 33 50 c48
73 48 83 6 153 l-36 62 -79 0 -78 0 -37 -67z m177 -2 c70 -70 5 -181 -87 -151
-42 14 -64 44 -64 88 0 45 46 92 90 92 22 0 41 -9 61 -29z"/>
<path d="M1910 155 l0 -135 25 0 25 0 1 108 1 107 40 -88 c38 -80 43 -87 70
-87 27 0 32 6 66 82 l37 82 5 -100 5 -99 28 -3 27 -3 0 135 0 136 -44 0 -43 0
-34 -81 c-19 -45 -38 -82 -43 -82 -4 -1 -24 35 -43 81 l-36 82 -44 0 -43 0 0
-135z"/>
</g>
</svg>
